<svg width="1280" height="720" viewBox="0 0 1280 720" fill="none" xmlns="http://www.w3.org/2000/svg">
  <rect width="1280" height="720" rx="36" fill="#EAF7F4"/>
  <rect x="88" y="82" width="1104" height="556" rx="28" fill="#FFFFFF"/>
  <rect x="88" y="82" width="1104" height="88" rx="28" fill="#0F766E"/>
  <path d="M88 142H1192V170H88V142Z" fill="#0F766E"/>
  <circle cx="145" cy="126" r="15" fill="#A7F3D0"/>
  <circle cx="194" cy="126" r="15" fill="#5EEAD4"/>
  <circle cx="243" cy="126" r="15" fill="#CCFBF1"/>
  <rect x="959" y="111" width="166" height="30" rx="15" fill="#CCFBF1"/>
  <rect x="128" y="214" width="284" height="364" rx="22" fill="#F8FAFC" stroke="#D9F1EC" stroke-width="4"/>
  <rect x="164" y="250" width="96" height="96" rx="24" fill="#14B8A6"/>
  <rect x="203" y="270" width="18" height="56" rx="4" fill="white"/>
  <rect x="184" y="289" width="56" height="18" rx="4" fill="white"/>
  <rect x="164" y="382" width="188" height="18" rx="9" fill="#134E4A"/>
  <rect x="164" y="422" width="136" height="14" rx="7" fill="#94A3B8"/>
  <rect x="164" y="456" width="196" height="14" rx="7" fill="#94A3B8"/>
  <rect x="164" y="510" width="126" height="38" rx="19" fill="#0F766E"/>
  <rect x="452" y="214" width="700" height="158" rx="22" fill="#F8FAFC" stroke="#D9F1EC" stroke-width="4"/>
  <rect x="492" y="254" width="170" height="22" rx="11" fill="#134E4A"/>
  <rect x="492" y="296" width="286" height="14" rx="7" fill="#94A3B8"/>
  <rect x="492" y="328" width="220" height="14" rx="7" fill="#CBD5E1"/>
  <rect x="874" y="250" width="214" height="82" rx="18" fill="#CCFBF1"/>
  <path d="M913 294H1049" stroke="#0F766E" stroke-width="14" stroke-linecap="round"/>
  <path d="M981 260V328" stroke="#0F766E" stroke-width="14" stroke-linecap="round"/>
  <rect x="452" y="406" width="206" height="172" rx="22" fill="#F8FAFC" stroke="#D9F1EC" stroke-width="4"/>
  <rect x="492" y="446" width="74" height="16" rx="8" fill="#134E4A"/>
  <rect x="492" y="484" width="126" height="54" rx="16" fill="#DBEAFE"/>
  <rect x="696" y="406" width="206" height="172" rx="22" fill="#F8FAFC" stroke="#D9F1EC" stroke-width="4"/>
  <rect x="736" y="446" width="94" height="16" rx="8" fill="#134E4A"/>
  <rect x="736" y="484" width="126" height="54" rx="16" fill="#FCE7F3"/>
  <rect x="940" y="406" width="212" height="172" rx="22" fill="#F8FAFC" stroke="#D9F1EC" stroke-width="4"/>
  <rect x="980" y="446" width="108" height="16" rx="8" fill="#134E4A"/>
  <rect x="980" y="484" width="132" height="54" rx="16" fill="#DCFCE7"/>
</svg>
